<svg width="20" height="28" viewBox="0 0 20 28" fill="none" xmlns="http://www.w3.org/2000/svg">
<path d="M10.0001 0.666504C4.84542 0.666504 0.666748 4.84518 0.666748 9.99984C0.666748 11.3812 0.967718 12.696 1.50893 13.879C1.84602 14.6158 2.22796 15.3401 2.59312 16.0297L2.63296 16.105C2.98956 16.7784 3.32911 17.4196 3.63163 18.0645C4.2602 19.4046 4.66675 20.6371 4.66675 21.8806C4.66675 22.6828 5.31708 23.3332 6.1193 23.3332H13.8809C14.6831 23.3332 15.3334 22.6828 15.3334 21.8806C15.3334 20.6371 15.74 19.4046 16.3685 18.0645C16.671 17.4196 17.0106 16.7784 17.3672 16.1051L17.407 16.0297C17.7722 15.3401 18.1541 14.6158 18.4912 13.879C19.0324 12.696 19.3334 11.3812 19.3334 9.99984C19.3334 4.84518 15.1547 0.666504 10.0001 0.666504Z" fill="white"/>
<path d="M6.00008 24.6665C5.2637 24.6665 4.66675 25.2635 4.66675 25.9998C4.66675 26.7362 5.2637 27.3332 6.00008 27.3332H14.0001C14.7365 27.3332 15.3334 26.7362 15.3334 25.9998C15.3334 25.2635 14.7365 24.6665 14.0001 24.6665H6.00008Z" fill="white"/>
</svg>
