<svg width="30" height="30" viewBox="0 0 30 30" fill="none" xmlns="http://www.w3.org/2000/svg">
<path d="M1.07584 10.3796C0.594059 11.8322 0.333252 13.3856 0.333252 14.9999C0.333252 20.5391 3.40392 25.3611 7.93586 27.8565L13.2446 15.6889L1.07584 10.3796Z" fill="white"/>
<path d="M2.14337 7.93593L13.6666 12.9636V0.393066C8.69354 0.841211 4.43628 3.77168 2.14337 7.93593Z" fill="white"/>
<path d="M14.9999 29.6666C13.3856 29.6666 11.8322 29.4058 10.3795 28.924L16.2106 15.5593C16.2516 15.4708 16.2831 15.377 16.3039 15.2793C16.3261 15.1764 16.3356 15.0727 16.3333 14.9702V0.393066C23.8086 1.0667 29.6666 7.34922 29.6666 14.9999C29.6666 23.1001 23.1001 29.6666 14.9999 29.6666Z" fill="white"/>
</svg>
